<?xml version="1.0" standalone="no"?><!DOCTYPE svg PUBLIC "-//W3C//DTD SVG 1.1//EN" "http://www.w3.org/Graphics/SVG/1.1/DTD/svg11.dtd"><svg t="1722214406131" class="icon" viewBox="0 0 1024 1024" version="1.1" xmlns="http://www.w3.org/2000/svg" p-id="4462" xmlns:xlink="http://www.w3.org/1999/xlink" width="200" height="200"><path d="M709.12 593.92c-35.328 0-64-28.672-64-64S673.792 465.92 709.12 465.92s64 28.672 64 64-28.672 64-64 64z m0-87.04c-12.8 0-23.04 10.24-23.04 23.04s10.24 23.04 23.04 23.04 23.04-10.24 23.04-23.04-10.24-23.04-23.04-23.04zM709.12 783.36c-35.328 0-64-28.672-64-64s28.672-64 64-64 64 28.672 64 64-28.672 64-64 64z m0-87.04c-12.8 0-23.04 10.24-23.04 23.04s10.24 23.04 23.04 23.04 23.04-10.24 23.04-23.04-10.24-23.04-23.04-23.04z" fill="#EB4446" p-id="4463"></path><path d="M860.16 942.08H81.92V439.296h40.96V901.12h737.28c22.528 0 40.96-18.432 40.96-40.96V163.84h-219.136v-40.96H942.08v737.28c0 45.056-36.864 81.92-81.92 81.92z" fill="#333333" p-id="4464"></path><path d="M860.16 803.84H409.6V506.88c0-33.792 27.648-61.44 61.44-61.44h450.56v296.96c0 33.792-27.648 61.44-61.44 61.44z" fill="#333333" opacity=".18" p-id="4465"></path><path d="M286.72 368.64H81.92V163.84c0-45.056 36.864-81.92 81.92-81.92h204.8v204.8c0 45.056-36.864 81.92-81.92 81.92z m-163.84-40.96h163.84c22.528 0 40.96-18.432 40.96-40.96V122.88H163.84c-22.528 0-40.96 18.432-40.96 40.96v163.84zM532.48 327.68H409.6V204.8c0-45.056 36.864-81.92 81.92-81.92h122.88v122.88c0 45.056-36.864 81.92-81.92 81.92z m-81.92-40.96h81.92c22.528 0 40.96-18.432 40.96-40.96V163.84H491.52c-22.528 0-40.96 18.432-40.96 40.96v81.92z" fill="#333333" p-id="4466"></path><path d="M256 696.32h256v40.96H256zM250.88 512h256v40.96H250.88z" fill="#EB4446" p-id="4467"></path></svg>