<?xml version="1.0" standalone="no"?><!DOCTYPE svg PUBLIC "-//W3C//DTD SVG 1.1//EN" "http://www.w3.org/Graphics/SVG/1.1/DTD/svg11.dtd"><svg t="1722215197983" class="icon" viewBox="0 0 1024 1024" version="1.1" xmlns="http://www.w3.org/2000/svg" p-id="4277" xmlns:xlink="http://www.w3.org/1999/xlink" width="200" height="200"><path d="M687.542857 672.914286h73.142857v343.771428h-73.142857z" fill="#93A1B2" p-id="4278"></path><path d="M848.457143 811.885714L724.114286 687.542857l-124.342857 124.342857-51.2-51.2L724.114286 585.142857l175.542857 175.542857zM468.114286 570.514286c-160.914286 0-292.571429-124.342857-292.571429-277.942857S307.2 14.628571 468.114286 14.628571s292.571429 124.342857 292.571428 277.942858-131.657143 277.942857-292.571428 277.942857z m0-482.742857c-117.028571 0-219.428571 95.085714-219.428572 204.8s95.085714 204.8 219.428572 204.8 219.428571-95.085714 219.428571-204.8-95.085714-204.8-219.428571-204.8z" fill="#93A1B2" p-id="4279"></path><path d="M307.2 987.428571c-197.485714 0-197.485714 0-197.485714-36.571428 0-373.028571 197.485714-453.485714 358.4-453.485714v73.142857c-182.857143 0-277.942857 109.714286-285.257143 343.771428H438.857143v36.571429c0 36.571429 0 36.571429-131.657143 36.571428z" fill="#93A1B2" p-id="4280"></path></svg>